<?xml version="1.0" encoding="UTF-8" standalone="no"?>
<!-- Created with Inkscape (http://www.inkscape.org/) -->

<svg
   xmlns:dc="http://purl.org/dc/elements/1.1/"
   xmlns:cc="http://creativecommons.org/ns#"
   xmlns:rdf="http://www.w3.org/1999/02/22-rdf-syntax-ns#"
   xmlns:svg="http://www.w3.org/2000/svg"
   xmlns="http://www.w3.org/2000/svg"
   xmlns:sodipodi="http://sodipodi.sourceforge.net/DTD/sodipodi-0.dtd"
   xmlns:inkscape="http://www.inkscape.org/namespaces/inkscape"
   version="1.1"
   id="svg2"
   xml:space="preserve"
   width="1100"
   height="1100"
   viewBox="0 0 1100 1100"
   sodipodi:docname="hr_stemma.svg"
   inkscape:version="0.92.4 (5da689c313, 2019-01-14)"><metadata
     id="metadata8"><rdf:RDF><cc:Work
         rdf:about=""><dc:format>image/svg+xml</dc:format><dc:type
           rdf:resource="http://purl.org/dc/dcmitype/StillImage" /><dc:title></dc:title></cc:Work></rdf:RDF></metadata><defs
     id="defs6"><clipPath
       clipPathUnits="userSpaceOnUse"
       id="clipPath18"><path
         d="M 0,800 H 1280 V 0 H 0 Z"
         id="path16"
         inkscape:connector-curvature="0" /></clipPath></defs><sodipodi:namedview
     pagecolor="#ffffff"
     bordercolor="#666666"
     borderopacity="1"
     objecttolerance="10"
     gridtolerance="10"
     guidetolerance="10"
     inkscape:pageopacity="0"
     inkscape:pageshadow="2"
     inkscape:window-width="1920"
     inkscape:window-height="1017"
     id="namedview4"
     showgrid="false"
     inkscape:zoom="0.37148436"
     inkscape:cx="438.19457"
     inkscape:cy="415.57876"
     inkscape:window-x="-8"
     inkscape:window-y="-8"
     inkscape:window-maximized="1"
     inkscape:current-layer="g14" /><g
     id="g10"
     inkscape:groupmode="layer"
     inkscape:label="HR stemma"
     transform="matrix(1.3333333,0,0,-1.3333333,0,1100)"><g
       id="g12"
       transform="translate(30.325337,0.14400732)"><g
         id="g14"
         clip-path="url(#clipPath18)"><g
           id="g888"
           transform="translate(-227.50004,-20.577694)"
           style="fill:#ffffff"><g
             transform="translate(712.2363,429.9683)"
             id="g20"
             style="fill:#ffffff"><path
               inkscape:connector-curvature="0"
               id="path22"
               style="fill:#ffffff;fill-opacity:1;fill-rule:nonzero;stroke:none"
               d="m 0,0 c -0.488,4.689 -3.409,8.824 -5.686,12.792 -1.061,1.851 -2.293,5.122 -3.953,6.418 -1.658,1.297 -3.399,2.068 -5.199,3.089 -3.19,1.809 -6.565,3.04 -10.131,3.882 -3.645,0.861 -1.054,-8.744 -1.022,-10.857 0.054,-3.467 0.116,-6.938 -0.105,-10.399 -0.198,-3.125 -2.049,-5.788 -4.495,-7.57 1.253,-0.458 2.707,-0.621 3.356,-1.729 1.482,-2.53 0.839,-5.905 1.045,-8.683 0.425,-5.74 2.58,-12.949 1.369,-18.786 0.943,0.074 1.858,0.209 2.753,0.415 0.09,0.046 0.175,0.097 0.294,0.12 0.375,0.066 0.731,0.148 1.079,0.238 0.075,0.022 0.15,0.039 0.225,0.061 5.647,1.563 7.773,6.145 10.491,11.023 2.211,3.972 5.374,7.476 6.115,12.086 0.055,0.347 0.417,0.668 0.746,0.746 2.298,0.549 4.1,-0.227 3.312,3.301 C -0.073,-2.655 0.127,-1.215 0,0" /></g><g
             transform="translate(743.4209,641.3237)"
             id="g24"
             style="fill:#ffffff"><path
               inkscape:connector-curvature="0"
               id="path26"
               style="fill:#ffffff;fill-opacity:1;fill-rule:nonzero;stroke:none"
               d="m 0,0 c 0.108,-0.815 1.215,-0.928 1.71,-0.409 8.319,-3.211 17.324,-1.467 26.203,-1.058 8.862,0.408 18.931,-2.608 27.53,-0.124 0.064,0.019 0.085,0.078 0.139,0.108 0.451,0.101 0.849,0.433 0.88,1.028 0.066,1.255 0.15,2.462 0.086,3.719 -0.083,1.624 -1.288,2.82 -1.33,4.529 -0.047,1.936 0.506,4.472 -0.645,6.18 -0.831,1.234 -3.05,3.359 -4.561,3.752 -1.699,0.441 -3.385,1.157 -5.085,1.742 0.167,-0.013 0.334,-0.038 0.501,-0.041 3.008,-0.053 5.784,0.926 8.865,0.467 5.011,-0.747 10.812,-1.381 15.801,-0.218 0.318,0.074 0.505,0.346 0.549,0.641 0.026,0.021 0.064,0.019 0.087,0.045 1.335,1.493 3.255,10.039 5.608,11.818 -0.426,-1.859 -0.322,-4.044 -0.484,-5.803 -0.174,-1.906 0.156,-3.933 1.886,-5.031 0.107,-0.067 0.23,-0.101 0.356,-0.114 2.89,-1.871 7.887,-1.086 11.192,-1.066 4.122,0.024 8.819,-0.996 12.868,-0.118 0.564,0.122 0.838,0.481 0.915,0.885 0.959,0.8 2.358,2.533 2.437,4.102 0.005,0.014 0.021,0.019 0.025,0.033 1.378,4.484 1.131,9.508 1.184,14.163 0.03,2.708 -0.299,5.391 -0.337,8.094 -0.019,1.281 0.192,1.904 -0.333,3.08 -0.141,0.316 -0.355,0.495 -0.59,0.596 -0.81,1.293 -2.218,2.436 -3.131,3.558 -0.909,1.116 -2.007,3.251 -3.713,3.173 -0.541,-0.024 -1.134,0.051 -1.736,0.145 -0.242,0.26 -0.577,0.45 -1.031,0.475 -7.802,0.443 -15.297,0.683 -23.101,0.038 C 66.825,57.9 59.933,59.477 54.223,58.322 40.268,55.499 25.924,56.795 11.759,57.246 11.5,57.388 11.199,57.463 10.861,57.402 9.521,57.158 8.542,55.94 7.358,55.306 6.536,54.865 5.648,54.571 4.831,54.12 3.73,53.515 1.317,52.427 1.476,50.872 1.479,50.835 1.503,50.803 1.51,50.767 0.032,44.414 0.682,36.655 0.734,30.183 0.815,20.191 -1.319,9.918 0,0" /></g><g
             transform="translate(364.0664,591.0068)"
             id="g28"
             style="fill:#ffffff"><path
               inkscape:connector-curvature="0"
               id="path30"
               style="fill:#ffffff;fill-opacity:1;fill-rule:nonzero;stroke:none"
               d="m 0,0 c -0.443,-0.601 -0.4,-1.631 0.328,-1.969 0.1,-0.046 0.2,-0.093 0.3,-0.139 0.422,-0.196 0.826,-0.154 1.168,0.004 15.583,1.294 30.818,1.878 46.446,1.35 18.179,-0.616 36.354,-1.753 54.53,-2.128 17.462,-0.361 35,0.468 52.434,-0.234 8.759,-0.352 17.435,-0.549 26.196,-0.716 8.577,-0.163 17.97,1.048 26.427,-0.312 0.379,-0.061 0.701,0.031 0.983,0.182 0.933,-0.408 2.085,-0.355 3.122,-0.271 1.58,0.129 3.266,0.186 4.862,0.494 0.75,-0.081 1.445,-0.144 1.979,-0.141 7.431,0.038 14.662,-0.196 22.082,-0.741 15.325,-1.124 30.546,0.563 45.854,0.851 17.022,0.32 34.057,0.884 51.076,0.159 15.793,-0.673 31.724,-2.534 47.453,-1.173 0.323,0.028 0.572,0.16 0.785,0.326 1.038,0.017 2.053,-0.038 3.081,0.197 0.1,0.023 0.166,0.075 0.248,0.114 3.179,-0.159 6.815,0.504 9.404,0.395 5.039,-0.213 9.938,-0.146 14.968,0.249 8.445,0.665 16.547,0.967 25.026,0.96 7.831,-0.007 15.734,0.456 23.447,1.849 9.317,1.683 18.477,1.225 27.932,1.212 0.226,0 0.417,0.055 0.584,0.138 0.486,0.122 0.913,0.487 0.963,1.12 0.287,3.665 -1.001,7.364 -1.119,11.095 -0.193,6.088 -0.718,12.174 -0.891,18.271 -0.237,8.345 0.444,19.058 -3.427,26.803 -2.987,5.975 -3.821,8.313 -10.995,7.993 -5.485,-0.246 -11.038,0.557 -16.551,0.424 -4.423,-0.106 -8.762,-0.963 -13.204,-1.043 -0.144,-0.002 -0.265,-0.059 -0.369,-0.134 -0.97,0.138 -1.92,-0.55 -2.685,-1.165 -1.195,-0.962 -2.629,-2.165 -3.389,-3.512 -0.11,-0.194 -0.12,-0.404 -0.087,-0.607 -0.018,-0.056 -0.051,-0.094 -0.062,-0.158 -0.369,-2.086 -0.392,-4.14 -0.215,-6.25 0.118,-1.426 0.146,-3.742 1.493,-4.589 l -0.098,-0.27 0.659,0.187 c 1.908,-2.016 5.011,-1.914 7.636,-2.192 1.84,-0.194 3.669,-0.48 5.497,-0.761 -7.845,-0.285 -15.652,-0.846 -23.519,-0.602 -7.589,0.234 -15.626,0.386 -23.23,-0.508 -0.019,0.013 -0.046,0.023 -0.065,0.037 l -0.036,-0.048 c -0.144,-0.017 -0.291,-0.028 -0.435,-0.046 -0.271,0.33 -0.852,0.427 -1.059,-0.029 -1.185,-2.609 -0.674,-6.081 -0.783,-8.908 -0.057,-1.474 -0.507,-4.916 0.678,-6.231 -0.068,-0.139 -0.028,-0.299 0.068,-0.424 l -0.006,-0.041 0.031,0.015 c 0.072,-0.08 0.163,-0.146 0.28,-0.162 3.58,-0.486 7.476,0.253 11.118,0.255 4.895,0.003 9.514,-0.931 14.258,-1.408 -3.484,-0.351 -6.962,-0.741 -10.448,-1.051 -0.281,-0.025 -0.437,-0.182 -0.535,-0.368 -0.1,-0.091 -0.215,-0.163 -0.26,-0.332 -0.483,-1.79 -0.51,-3.622 -0.853,-5.438 -0.245,-1.291 -0.769,-2.53 -1.322,-3.736 -0.496,1.005 -0.723,2.15 -1.036,3.23 -0.486,1.672 -1.071,3.467 -1.775,5.056 -0.185,0.418 -0.6,0.39 -0.9,0.179 -4.344,-0.338 -8.44,-1.551 -12.882,-1.806 -6.497,-0.372 -12.717,0.429 -19.169,0.242 -6.675,-0.193 -13.304,-0.572 -19.97,-0.94 -4.262,-0.235 -8.295,0.853 -12.437,1.281 1.367,0.565 2.755,1.441 3.852,1.796 1.209,0.392 3.767,-0.498 4.89,0.429 0.302,-0.101 0.666,-0.018 0.752,0.353 0.724,3.116 0.904,6.295 1.751,9.397 0.265,0.968 0.595,1.908 0.924,2.846 0.145,-0.733 0.298,-1.427 0.351,-1.961 0.324,-3.242 1.74,-6.354 1.677,-9.626 0.004,0 0.008,0.001 0.013,0.001 0.013,-0.109 0.008,-0.196 0.023,-0.311 0.122,-0.926 1.056,-0.995 1.694,-0.592 1.733,-0.594 3.415,-0.408 5.382,-0.29 4.455,0.27 8.55,0.803 13.048,0.584 4.673,-0.227 9.593,0.815 14.249,1.149 0.526,0.038 0.913,0.036 1.251,0.043 0.609,-0.282 1.469,-0.068 1.747,0.712 l 0.279,0.778 c 0.164,0.459 0.032,0.84 -0.225,1.112 0.022,4.264 -0.159,8.455 -0.76,12.684 0.428,0.955 -0.032,1.95 -1.128,2.051 -3.993,0.366 -8.037,-0.111 -12.057,0.191 -3.149,0.236 -6.211,0.508 -9.275,0.157 -0.098,0.045 -0.182,0.1 -0.304,0.124 -3.391,0.681 -7.543,3.173 -11.086,2.3 -7.62,-1.876 -14.241,-2.339 -22.099,-1.453 -6.733,0.759 -13.488,0.096 -20.243,0.045 -4.886,-0.037 -10.436,0.578 -15.347,-0.171 0.108,9.372 -1.201,18.692 -0.604,28.228 0.587,9.389 -0.379,18.548 -1.46,27.861 -0.026,0.228 -0.15,0.337 -0.259,0.464 0.037,0.112 0.102,0.206 0.118,0.328 0.184,1.307 -0.833,2.405 -1.533,3.397 -0.629,0.893 -1.255,1.796 -1.893,2.683 0.019,0.922 -0.556,1.85 -1.746,1.858 -1.211,0.008 -3.34,0.314 -4.878,-0.15 -0.805,0.23 -1.342,0.152 -2.656,-0.175 -4.761,-1.188 -9.995,0.064 -14.843,0.266 -10.552,0.442 -21.159,0.83 -31.729,0.644 -7.009,-0.123 -13.709,1.837 -19.953,-1.742 -7.04,-4.035 -18.029,0.275 -26.1,-1.341 -0.555,0.538 -1.413,0.707 -2.078,-0.041 -1.564,-1.756 -3.778,-2.725 -5.425,-4.407 -0.847,-0.866 -1.55,-1.836 -2.485,-2.617 -0.773,-0.647 -1.587,-1.241 -2.223,-2.031 -0.1,-0.125 -0.148,-0.259 -0.206,-0.39 -0.19,-0.251 -0.332,-0.554 -0.332,-0.96 0.014,-16.386 -1.903,-32.93 -1.443,-49.314 -11.586,0.266 -23.709,-2.171 -35.232,-2.52 -11.575,-0.35 -23.876,-0.785 -35.442,0.372 0.001,0.108 0.022,0.208 -0.002,0.327 -1.301,6.536 -1.129,12.737 -1.047,19.334 0.032,2.543 0.258,6.836 -1.628,8.987 -5.561,6.345 -3.066,10.666 -3.423,17.768 -0.236,4.701 -1.887,9.065 -3.833,13.337 -0.173,0.89 -0.815,1.669 -2,1.686 -7.758,0.118 -15.135,1.325 -22.804,2.231 -9.116,1.077 -18.56,0.564 -27.732,0.951 -16.197,0.682 -32.899,3.989 -49,0.92 -0.527,-0.101 -0.862,-0.435 -1.053,-0.848 -1.888,-0.955 -3.738,-1.948 -5.577,-2.999 -0.575,-0.33 -0.821,-0.967 -0.688,-1.603 1.892,-9.015 0.299,-18.971 0.015,-28.124 C -2.544,68.709 -2.168,58.591 -2.272,48.482 -2.376,38.473 -2.22,28.466 -2.269,18.456 -2.295,13.082 -2.703,4.997 0,0" /></g><g
             transform="translate(703.3799,578.624)"
             id="g32"
             style="fill:#ffffff"><path
               inkscape:connector-curvature="0"
               id="path34"
               style="fill:#ffffff;fill-opacity:1;fill-rule:nonzero;stroke:none"
               d="m 0,0 c -0.221,0.427 -0.704,0.659 -1.189,0.681 -8.327,1.337 -17.006,1.902 -25.415,1.517 -8.128,-0.371 -13.372,0.11 -20.752,-3.76 -6.221,-3.262 0.222,-14.559 6.252,-15.252 0.205,-0.112 0.44,-0.189 0.726,-0.195 3.119,-0.068 5.923,0.874 9.08,1.225 4.111,0.458 8.348,-0.35 12.467,-0.417 4.413,-0.071 8.128,2.022 12.613,0.176 2.584,-1.064 4.184,-0.949 6.824,-0.096 0.684,0.221 0.991,0.797 0.885,1.491 C 0.741,-9.74 2.355,-4.559 0,0" /></g><g
             transform="translate(747.8447,581.4941)"
             id="g36"
             style="fill:#ffffff"><path
               inkscape:connector-curvature="0"
               id="path38"
               style="fill:#ffffff;fill-opacity:1;fill-rule:nonzero;stroke:none"
               d="m 0,0 c -1.153,0.755 -4.036,0.772 -5.29,0.775 -5.441,0.017 -9.833,-0.487 -12.832,-0.43 -5.818,0.11 -12.587,1.635 -18.404,-0.852 -5.759,-2.463 -4.408,-17.441 2.879,-19.108 0.152,-0.034 0.287,-0.013 0.406,0.032 0.052,-0.025 0.083,-0.065 0.138,-0.086 4.291,-1.606 10.585,-2.567 14.996,-1.657 4.433,0.915 8.905,0.541 13.363,0.162 1.487,-0.127 3.927,-0.23 5.192,0.989 3.016,2.903 4.895,9.315 5.31,13.461 C 6.207,-2.238 3.392,-2.222 0,0" /></g><g
             transform="translate(763.1768,561.5166)"
             id="g40"
             style="fill:#ffffff"><path
               inkscape:connector-curvature="0"
               id="path42"
               style="fill:#ffffff;fill-opacity:1;fill-rule:nonzero;stroke:none"
               d="m 0,0 c 0.575,-0.478 1.895,-1.531 2.983,-1.672 0.254,-0.166 0.583,-0.231 0.973,-0.117 7.714,2.254 15.039,0.812 22.809,1.225 1.145,0.061 2.397,0.776 3.407,1.251 2.292,1.076 2.411,-0.582 4.263,-0.224 2.256,0.435 3.57,1.871 3.79,4.268 0.394,4.313 1.37,9.047 0.234,13.262 -0.086,0.32 -0.344,0.622 -0.677,0.702 C 30.857,20.363 24.05,21.022 16.931,21.806 12.991,22.24 9.074,21.546 5.127,21.682 4.111,21.716 3.141,21.724 2.256,21.432 2.014,21.749 1.627,21.949 1.169,21.824 -1.879,20.987 -3.864,18.338 -3.997,15.289 -4.11,12.721 -4.321,10.158 -4.427,7.589 -4.47,6.557 -4.623,5.601 -4.287,4.823 -4.419,4.578 -4.425,4.273 -4.265,4.014 -4.293,4.022 -4.321,4.03 -4.35,4.039 -3.342,2.494 -1.418,1.178 0,0" /></g><g
             transform="translate(856.9736,583.3022)"
             id="g44"
             style="fill:#ffffff"><path
               inkscape:connector-curvature="0"
               id="path46"
               style="fill:#ffffff;fill-opacity:1;fill-rule:nonzero;stroke:none"
               d="m 0,0 c -1.807,3.222 -8.566,1.791 -11.284,1.733 -4.061,-0.087 -8.093,0.724 -12.174,0.652 -4.657,-0.082 -9.2,-1.27 -13.898,-1.186 -6.768,0.122 -6.529,-0.689 -11.325,-6.141 -3.428,-3.897 -1.344,-8.444 -0.064,-13.12 0.145,-0.532 0.845,-0.517 1.052,-0.093 0.124,-0.012 0.24,-0.033 0.382,-0.011 13.563,2.181 28.552,-2.936 42.22,-3.196 3.641,-0.069 3.289,5.106 3.64,7.305 C -0.92,-10.734 1.943,-3.468 0,0" /></g><g
             transform="translate(797.2695,311.1699)"
             id="g48"
             style="fill:#ffffff"><path
               inkscape:connector-curvature="0"
               id="path50"
               style="fill:#ffffff;fill-opacity:1;fill-rule:nonzero;stroke:none"
               d="m 0,0 c -1.17,-12.04 -2.699,-24.53 -8.31,-35.12 -2.009,-3.79 -4.179,-7.47 -6.29,-11.19 0.031,-0.51 0.1,-1.03 0.29,-1.56 0.6,-1.66 1.71,-2.99 3.021,-4.16 0.539,-0.48 1.1,-0.949 1.659,-1.4 1.67,-1.37 3.33,-2.7 4.53,-4.46 1.05,-0.37 2.13,-0.7 3.161,-1.17 2.059,-0.93 4,-2.08 5.96,-3.21 0.764,0.606 1.617,1.145 2.514,1.601 8.227,16.682 13.858,35.249 17.659,57.238 C 17.437,-0.303 4.025,2.173 0,0" /></g><g
             transform="translate(466.27,207.1201)"
             id="g52"
             style="fill:#ffffff"><path
               inkscape:connector-curvature="0"
               id="path54"
               style="fill:#ffffff;fill-opacity:1;fill-rule:nonzero;stroke:none"
               d="m 0,0 c 2.62,3.13 4.57,6.46 7.52,9.1 0.07,0.92 0.45,1.77 0.46,2.87 0,0.98 -0.27,1.929 -0.7,2.8 -1.5,1.66 -2.98,3.33 -4.45,5.05 -5.04,5.88 -10.25,11.81 -14.97,18.05 -0.25,0.23 -0.5,0.47 -0.76,0.68 -1.92,1.54 -3.99,2.83 -6.03,4.179 -0.12,-0.029 -0.25,-0.059 -0.38,-0.049 -1.87,0.1 -2.25,-0.42 -5.88,-0.96 -0.1,-0.06 -0.54,0 -0.64,-0.06 -0.46,-0.12 -0.7,-0.16 -0.81,-0.181 -0.16,-0.109 -0.32,-0.229 -0.47,-0.33 -0.27,-0.179 -0.54,-0.289 -0.8,-0.329 -1.18,-0.69 -2.47,-1.25 -3.45,-1.86 -0.95,-0.59 -3.72,-2.1 -5.62,-3.731 -0.05,-0.059 -0.11,-0.119 -0.16,-0.189 -0.769,-1.494 -0.722,-3.443 -0.603,-5.226 C -30.83,18.603 -22.498,8.122 -12.474,-2.177 -7.99,-3.412 -3.617,-4.343 0,0" /></g><g
             transform="translate(758.2051,290.415)"
             id="g56"
             style="fill:#ffffff"><path
               inkscape:connector-curvature="0"
               id="path58"
               style="fill:#ffffff;fill-opacity:1;fill-rule:nonzero;stroke:none"
               d="m 0,0 c 0.03,-0.419 -0.222,-0.866 -0.77,-0.883 -16.591,-0.506 -33.008,-0.172 -49.59,-0.134 -0.321,10e-4 -0.56,0.126 -0.728,0.308 -0.156,-0.188 -0.397,-0.308 -0.739,-0.27 -0.682,0.074 -1.363,0.148 -2.044,0.222 -0.682,0.074 -1.113,0.587 -0.976,1.28 0.3,1.518 -2.999,5.353 -3.257,7.489 -0.615,5.115 -1.105,10.22 -1.373,15.37 -0.302,5.834 0.041,11.674 -0.721,17.48 -0.788,6.002 -2.07,11.854 -1.942,17.93 0.01,0.454 0.326,0.977 0.808,1.061 0.61,0.203 1.222,0.405 1.832,0.607 -0.779,0.817 -1.525,1.718 -1.895,2.728 -0.437,1.199 -0.334,3.493 -1.851,3.762 -3.075,0.546 -6.899,2.752 -6.924,-2.758 -0.001,-1.398 -0.013,-2.797 -0.036,-4.196 -0.123,-3.091 -1.196,-5.851 2.101,-7.381 0.246,-0.113 0.398,-0.428 0.395,-0.688 -0.17,-15.372 2.265,-30.793 1.78,-46.219 -0.009,-0.298 -0.236,-0.438 -0.459,-0.43 -0.641,-1.16 -1.351,-2.279 -1.997,-3.439 -0.31,-0.557 -0.465,-1.408 -0.92,-1.866 -0.053,-0.054 -0.141,-0.06 -0.217,-0.035 -0.104,-0.172 -0.277,-0.305 -0.54,-0.314 -7.614,-0.263 -15.113,1.516 -22.728,1.037 -8.512,-0.534 -17.131,-1.859 -25.652,-0.898 -0.095,0.01 -0.159,0.055 -0.203,0.112 -0.066,-0.013 -0.139,-0.007 -0.212,0.026 -0.31,0.139 -0.442,0.536 -0.59,0.821 -0.209,0.404 -0.44,0.795 -0.668,1.187 -0.199,0.344 -0.415,0.682 -0.621,1.026 -0.134,0.057 -0.251,0.159 -0.271,0.351 -0.006,0.053 -0.012,0.107 -0.017,0.16 -0.12,0.225 -0.232,0.452 -0.323,0.69 -0.055,0.142 0.012,0.253 0.118,0.315 -0.343,2.255 -0.803,4.79 -0.628,7.126 -0.511,5.258 -0.924,10.55 -0.963,15.768 -0.002,0.324 0.206,0.502 0.447,0.551 2.27,1.13 4.742,1.473 7.224,1.888 1.505,0.252 3.026,0.645 4.549,0.892 -2.673,1.369 -5.27,2.916 -7.964,4.253 -1.833,0.909 -4.06,1.821 -5.127,3.681 -0.124,0.218 -0.024,0.437 0.148,0.553 -1.613,4.669 -0.813,11.335 -0.741,16.179 0.088,5.953 -0.544,12.134 -0.022,18.066 -1.555,11.115 -0.664,22.412 -1.29,33.572 -0.32,5.734 3.924,10.457 1.385,15.829 -1.432,3.028 -1.639,6.013 -1.423,9.166 -0.025,0.155 -0.027,0.307 -0.011,0.52 0.005,0.065 0.035,0.109 0.068,0.146 0.046,0.547 0.101,1.101 0.166,1.661 -0.023,0.281 -0.033,0.563 -0.046,0.845 0.008,-1.184 -0.027,0.209 -0.027,0.332 0.005,0.677 -0.002,0.729 -0.008,0.616 -0.021,0.308 -0.12,0.562 0.016,0.856 0.002,0.063 0,0.125 0.002,0.188 0.059,1.796 -0.172,3.842 0.501,5.526 0.031,0.076 0.081,0.125 0.132,0.172 0.897,19.339 0.513,38.728 0.77,58.081 0.003,0.264 0.09,0.468 0.204,0.645 -0.033,0.287 0.105,0.603 0.42,0.666 5.225,1.068 10.582,0.376 15.869,0.143 5.979,-0.265 11.971,-0.243 17.954,-0.432 2.734,-0.086 8.451,1.331 10.304,-1.029 1.425,-1.816 2.588,-3.836 3.863,-5.772 0.51,2.461 1.298,6.07 2.799,6.392 3.356,0.719 6.018,1.171 9.45,1.348 4.996,0.26 9.984,0.609 14.986,0.739 3.386,0.088 6.478,-0.292 9.681,-0.055 0.045,0.028 0.086,0.059 0.141,0.075 1.077,0.315 2.06,0.403 3.164,0.453 0.226,0.084 0.48,0.099 0.722,-0.014 5.305,-2.478 9.458,-5.997 13.773,-9.875 4.998,-4.491 11.865,-7.833 16.044,-13.071 0.177,-0.021 0.355,-0.093 0.518,-0.261 1.662,-1.708 0.76,-5.958 1.02,-8.137 0.722,-6.053 1.029,-12.144 1.437,-18.227 0.753,-11.209 0.947,-22.885 0.291,-34.102 -0.001,-0.014 -0.008,-0.025 -0.01,-0.039 -0.003,-0.166 -0.045,-0.34 -0.185,-0.513 -1.621,-2.019 -2.976,-3.802 -4.901,-5.706 -2.408,-2.379 -5.266,-4.224 -7.721,-6.567 -2.651,-2.531 -5.409,-4.656 -7.445,-7.778 -0.959,-1.47 -2.036,-2.494 -3.342,-3.655 2.57,-2.075 5.126,-4.228 7.455,-6.571 1.019,-1.025 2.861,-2.324 3.266,-3.795 0.649,-2.36 -1.36,-5.965 -2.911,-8.609 2.676,1.05 5.476,1.747 8.04,2.971 0.295,0.14 0.711,0.16 0.944,-0.122 0.71,-0.863 1.48,-1.973 2.308,-3.034 0.954,-0.978 1.806,-2.074 2.914,-2.859 0.518,0.169 1.121,-0.202 1.189,-0.848 C -0.52,60.894 -0.761,47.964 -0.322,35.491 0.094,23.684 0.041,11.815 0,0 m -144.5,0.347 c -3.273,1.115 -6.349,0.791 -9.226,-0.973 -0.765,-0.329 -1.434,0.198 -1.32,1.015 -3.856,4.3 -6.329,4.581 -7.421,0.84 -0.166,-0.317 -0.588,-0.578 -0.951,-0.545 -7.371,0.648 -14.774,1.193 -22.179,1.012 -4.297,-0.104 -9.068,-1.144 -13.311,-0.526 -0.452,0.065 -0.709,0.561 -0.735,0.966 -1.151,18.167 -2.149,36.51 -1.771,54.732 -4.012,0.184 -8.07,-0.322 -12.049,0.205 0.249,-14.414 2.669,-28.718 2.24,-43.157 -0.077,-2.588 0.872,-7.726 -1.296,-9.771 -2.2,-2.076 -10.608,-1.748 -13.28,-2.249 -0.412,-0.077 -0.82,0.045 -1.042,0.424 -2.076,3.538 -3.411,7.227 -4.201,11.085 -0.54,-3.457 -1.115,-6.933 -2.031,-10.152 -0.921,-3.235 -1.649,-3.455 -5.024,-3.93 -7.338,-1.031 -15.119,-0.129 -22.49,0.119 -7.232,0.244 -14.559,-0.289 -21.738,0.732 -0.032,0.005 -0.038,0.03 -0.066,0.039 -0.225,-0.045 -0.467,0.048 -0.545,0.351 -3.029,11.803 -1.18,23.99 -2.356,35.996 -1.166,11.891 -3.479,23.61 -3.032,35.607 0.011,0.281 0.148,0.583 0.411,0.716 2.174,1.096 4.581,1.894 6.621,3.233 1.367,0.896 -1.465,0.865 -2.577,1.28 -1.557,0.582 -3.515,1.044 -4.656,2.318 -1.415,1.579 -1.069,7.13 -1.191,8.849 -0.388,5.499 -0.716,11.003 -0.859,16.514 -0.307,11.814 0.131,23.612 0.096,35.426 -0.018,6.267 -0.083,12.533 -0.259,18.796 -0.098,3.476 -0.513,6.683 -1.92,9.82 -1.036,2.31 -0.854,1.665 -1.346,4.134 -0.967,4.85 0.692,9.955 -0.153,14.957 -0.24,1.427 -0.823,3.647 0.221,4.942 2.261,2.8 5.873,3.086 9.175,4.481 2.869,1.212 4.934,1.441 8.077,1.148 6.399,-0.595 12.781,-0.525 19.104,0.781 3.204,0.662 6.593,1.482 9.845,0.542 9.384,-2.715 19.296,-2.424 28.991,-3.892 0.456,-0.068 0.811,-0.607 0.795,-1.043 -0.453,-11.676 -1.141,-23.422 -0.77,-35.107 0.171,-5.386 0.406,-10.782 0.972,-16.144 0.668,-6.332 1.475,-6.84 7.526,-7.052 3.589,-0.127 5.018,-0.253 5.227,3.847 0.183,3.604 0.367,7.209 0.379,10.82 0.008,2.482 0.115,4.961 0.234,7.44 0.606,12.64 0.521,25.24 0.685,37.872 0.011,0.842 0.921,1.027 1.409,0.604 4.451,-0.486 9.277,-1.182 13.658,-0.018 3.749,0.996 7.443,3.316 11.257,3.889 6.5,0.977 13.12,-0.79 19.726,-0.305 0.133,0.009 0.268,-0.087 0.299,-0.216 0.849,-3.409 1.638,-6.832 2.431,-10.255 1.473,3.564 2.895,7.137 3.736,10.921 0.073,0.329 0.446,0.637 0.792,0.603 4.138,-0.402 8.155,-0.417 12.297,-0.066 0.681,0.058 0.999,-0.648 0.919,-1.206 -2.443,-16.985 -2.395,-33.917 -0.905,-50.988 0.035,-0.405 -0.25,-0.831 -0.588,-1.026 -2.848,-1.642 -6.111,-2.65 -9.423,-3.368 0.848,-0.198 1.613,-0.49 2.181,-0.987 1.726,-1.512 5.802,-2.506 6.532,-4.459 1.506,-4.027 0.372,-8.416 0.369,-12.65 -0.005,-6.935 -0.039,-13.871 -0.047,-20.806 0,-0.104 -0.032,-0.184 -0.055,-0.272 0.022,-0.796 -0.038,-1.598 -0.104,-2.406 -0.011,-0.13 -0.023,-0.258 -0.034,-0.387 0.591,-4.318 0.396,-8.797 0.23,-13.117 -0.222,-5.81 0.245,-13.138 -2.671,-17.939 -0.411,-0.678 -1.011,-1.225 -1.68,-1.65 -3.992,-2.534 -0.734,-3.74 1.574,-6.168 1.442,-1.517 0.374,-4.393 0.296,-6.133 -0.275,-6.117 -0.585,-12.233 -0.822,-18.352 -0.429,-11.051 -0.411,-22.231 -1.464,-33.24 0.193,-1.843 0.382,-3.686 0.555,-5.532 0.058,-0.604 -0.695,-1.206 -1.272,-0.969 M 84.515,268.011 c -6.619,0.385 -12.99,-0.708 -19.615,-0.594 -6.852,0.119 -13.697,-0.905 -20.59,-0.722 -6.833,0.18 -13.642,-1.097 -20.396,-0.883 -2.168,0.069 -5.388,0.73 -7.523,-0.417 -9.565,-0.468 -42.62,-3.718 -43.022,-0.243 -0.07,0.609 -0.741,0.973 -1.28,1.015 -18.821,1.463 -37.615,2.211 -56.448,1.646 -10.067,-0.302 -19.944,-1.632 -30.033,-1.431 -9.126,0.181 -19.3,-1.206 -28.44,0.66 4.567,1.462 9.158,2.263 14.017,2.801 2.917,0.324 9.756,-0.926 12.526,0.61 0.103,0.058 7.111,1.488 7.441,3.19 1.058,5.453 1.182,11.152 2.073,16.674 0.109,0.68 -0.262,1.569 -1.103,1.506 -1.643,-0.122 -19.525,-2.874 -20.214,-1.261 -0.179,0.42 -0.663,0.604 -1.077,0.646 -10.123,1.017 -20.805,0.785 -30.891,-0.135 -0.342,-0.031 -0.558,-0.27 -0.625,-0.534 -0.248,-0.089 -0.491,-0.233 -0.699,-0.514 -1.804,-2.43 -3.336,-5.316 -4.645,-8.222 -1.03,4.343 -2.197,9.527 -7.867,8.114 -3.078,-0.766 -6.293,-0.594 -9.384,0.122 -6.574,1.523 -12.926,0.01 -19.44,-0.123 -6.412,-0.131 -12.101,3.219 -17.578,-0.924 -3.472,-2.626 -2.16,-13.688 -1.579,-17.289 0.12,-0.743 0.945,-1.337 1.671,-1.324 4.783,0.088 9.316,-0.536 13.855,-1.321 -5.982,-1.275 -11.791,-2.355 -18.318,-1.616 -6.233,0.705 -12.378,1.601 -18.584,2.173 4.151,1.254 9.097,1.482 13.32,1.754 1.792,-0.286 4.21,0.378 4.705,2.2 0.041,0.149 -0.009,0.278 -0.021,0.416 0.016,0.127 0.061,0.232 0.056,0.372 -0.163,4.462 -0.03,8.789 -0.971,13.168 -0.427,1.988 -2.143,3.389 -3.834,2.903 -0.138,0.026 -0.28,0.045 -0.439,0.021 -8.783,-1.306 -18.818,-0.245 -27.755,-0.097 -8.407,0.138 -18.045,2.829 -26.321,1.005 -1.346,-0.296 -2.049,-0.491 -2.857,-1.812 -0.202,-0.331 -2.633,-7.855 -3.397,-6.692 -3.424,5.213 -2.245,8.19 -9.013,8.773 -3.308,0.286 -6.423,1.377 -9.693,1.499 -2.564,0.094 -5.681,-1.042 -8.297,-1.378 -10.552,-1.352 -19.676,-0.471 -30.206,0.432 -9.035,0.774 -17.798,0.067 -26.913,0.068 -5.037,0 -9.716,-0.172 -14.704,0.816 -2.136,0.422 -2.764,-0.072 -4.484,-1.087 -0.176,-0.104 -0.289,-0.245 -0.347,-0.397 -0.127,-0.163 -0.213,-0.367 -0.181,-0.633 0.279,-2.343 -0.077,-4.696 0.204,-7.069 0.294,-2.491 0.633,-4.967 0.992,-7.447 -0.011,-0.04 -0.037,-0.07 -0.034,-0.118 0.008,-0.167 0.026,-0.29 0.051,-0.411 -0.07,-0.465 0.166,-0.984 0.784,-1.029 6.662,-0.482 13.008,-1.837 19.74,-1.594 6.328,0.229 13.4,1.489 19.65,0.509 0.518,-0.081 1.08,0.096 1.23,0.668 0.54,2.058 1.631,3.885 2.613,5.765 0.891,-4.861 1.049,-6.946 8.146,-6.198 6.84,0.722 14.814,-0.448 21.74,-0.641 4.565,-0.128 9.851,-0.834 14.744,-2.122 -2.545,0.301 -5.103,0.413 -7.741,-0.019 -7.561,-1.238 -15.126,-1.476 -22.769,-1.764 -6.745,-0.253 -12.491,0.45 -19.154,-0.917 -4.666,-0.957 -9.501,-1.583 -14.253,-1.709 -3.427,-0.091 -6.284,0.655 -9.619,-0.125 -1.19,0.069 -1.619,-1.915 -0.303,-2.475 2.723,-1.157 4.355,-6.779 5.908,-9.245 1.377,-2.184 2.715,-4.322 4.003,-6.557 0.016,-0.315 0.135,-0.636 0.407,-0.924 0.186,-0.196 0.363,-0.402 0.533,-0.616 0.263,-0.407 0.563,-0.852 0.92,-1.349 1.946,-3.302 2.68,-7.791 3.463,-11.253 0.476,-2.101 0.916,-4.252 1.263,-6.42 0.099,-17.288 0.268,-35.35 0.174,-46.026 0.688,-1.393 1.581,-2.487 2.748,-2.929 0.57,0.14 1.17,-0.03 1.63,-0.39 2.78,-0.43 5.54,-0.12 8.37,-0.07 3.13,0.06 8.16,-0.57 10.83,1.37 2.58,1.88 2.89,4.82 3.3,7.72 0.05,0.35 0.24,0.67 0.49,0.94 0.038,0.419 0.092,0.853 0.162,1.264 0.027,0.282 0.07,0.737 0.096,1.019 -0.01,2.606 -0.03,5.212 -0.078,7.817 -0.14,7.2 0.25,14.39 0.09,21.59 -0.09,3.95 -0.17,7.9 -0.2,11.85 -0.022,3.031 -0.427,4.314 1.758,6.9 2.528,-2.748 1.818,-5.508 1.872,-8.88 0.06,-3.94 0.07,-7.9 0.25,-11.83 0.31,-7.2 1.05,-14.39 1.2,-21.59 0.3,-14.85 -0.1,-29.62 -1.3,-44.43 -0.21,-2.63 -0.41,-5.26 -0.6,-7.88 -0.02,-0.3 -0.04,-0.59 -0.07,-0.88 -0.84,-11.73 -1.36,-23.44 -0.43,-35.21 0.53,-6.84 1.02,-13.67 0.58,-20.54 -0.44,-6.75 -1.64,-13.46 -1.97,-20.21 0,-0.03 -0.04,-0.03 -0.04,0 -0.23,7.37 0.06,14.67 0.02,22.04 -0.03,6.91 -1.03,13.74 -1.72,20.61 -0.88,8.75 -1.1,17.45 -0.97,26.18 -1.94,10.59 0.41,22.05 -3.83,32.28 -1.83,4.43 -6.41,3.48 -10.47,3.43 -3.82,-0.04 -6.07,-2.18 -8.7,-3.93 -0.34,-1.21 -0.64,-2.43 -0.8,-3.66 -0.62,-4.58 -1.15,-9.2 -1.65,-13.79 -0.392,-3.647 -0.565,-7.298 -0.737,-10.954 0.016,-6.696 0.058,-13.191 0.131,-19.488 1.184,-2.784 3.282,-4.622 7.166,-5.168 9.83,-1.38 5.87,-0.84 0,-2.1 -1.798,-0.384 -4.619,-0.646 -7.042,-1.315 1.15,-68.088 6.473,-112.728 23.156,-148.514 4.039,-4.335 8.054,-3.637 11.706,-4.911 1.22,-0.21 3.52,1.54 5.23,2.46 1.41,0.83 0.81,0.55 1.94,1.67 2.93,2.891 4.82,6.42 3.98,11.37 -0.02,0.14 -0.02,0.29 -0.02,0.43 -0.73,1.721 -1.42,3.46 -2.08,5.21 -3.16,2.77 -3.51,9.15 -8.06,10.24 -0.18,0.061 -0.33,0.15 -0.46,0.24 -1.19,-0.429 -2.5,-0.44 -3.77,-0.69 -5.21,-1.02 -9.54,-3.14 -0.43,1.6 2.49,1.3 5.63,1.93 6.53,5 0.15,0.52 0.57,0.51 0.86,1.86 -0.08,0.78 -0.28,2.28 -0.54,2.98 -2.63,6.96 1.28,-0.83 1.55,-1.3 3.02,-5.209 3.63,-11.69 6.31,-17.129 2.71,-5.491 5.92,-10.621 9.3,-15.721 6.86,-10.37 15.01,-19.67 22.97,-29.199 3.93,-4.711 7.59,-9.701 12.01,-13.981 4.43,-4.3 9.14,-8.269 13.81,-12.309 2.36,-2.04 4.73,-4.181 6.75,-6.58 3.32,-2.321 6.15,-5.54 9.3,-7.991 4.93,-3.85 9.82,-7.99 15.43,-10.78 0.79,-0.399 0.09,-1.56 -0.7,-1.18 -2.6,1.241 -5.16,2.44 -7.66,3.741 -0.18,-0.071 -0.4,-0.061 -0.62,0.069 -1.89,1.07 -3.69,2.23 -5.44,3.46 -1.01,0.67 -2.02,1.36 -2.99,2.12 -3.24,2.49 -7.07,5 -9.7,8.271 -2.77,2.469 -5.53,4.949 -8.39,7.319 -5.46,4.551 -10.57,9.27 -15.46,14.221 -0.96,0.33 -1.91,0.71 -2.9,0.96 -0.04,-0.031 -0.06,-0.061 -0.1,-0.09 -4.23,-2.951 -8.81,-9.921 -10.81,-11.901 -0.77,-1.86 -1.47,-3.71 -2.16,-5.58 -0.308,-0.847 -0.591,-1.687 -0.845,-2.527 11.454,-10.524 24.79,-21.051 40.304,-32.183 0.79,-0.362 1.578,-0.588 2.321,-0.55 2.41,0.13 5.06,3.28 6.72,4.911 1.71,1.689 3.5,3.29 5.22,4.979 2.15,2.12 3.15,2.71 1.72,-0.71 -0.06,-0.13 -0.07,-0.32 -0.15,-0.5 l 0.01,-0.01 c -0.01,-0.009 -0.02,-0.03 -0.04,-0.04 -0.46,-1 -1.74,-2.33 -1.77,-2.36 -1.33,-1.87 -2.86,-4.05 -3.37,-6.31 -0.644,-2.885 0.401,-5.331 1.369,-7.87 25.082,-17.315 55.294,-36.358 91.659,-59.202 0.372,0.276 0.633,0.701 0.672,1.193 0.45,4.889 0.48,9.959 1.38,14.699 0.98,5.12 4,13.25 -1.62,16.77 -4.11,2.56 -8.81,3.821 -13.04,6.111 -5.2,2.819 -10.46,5.719 -14.94,9.619 -0.6,0.52 -4.23,3.86 0.83,1.07 2.008,-1.105 3.974,-2.252 6.004,-3.293 0.067,-0.026 0.135,-0.053 0.202,-0.079 1.743,-0.487 3.394,-0.894 4.994,-1.248 3.08,-0.68 6.01,-1.17 9.22,-1.72 6.48,-1.13 12.18,-0.29 18.32,1.91 5.4,1.951 10.67,3.97 16.32,5.09 5.2,1.03 9.31,3.441 13.609,6.24 0.281,0.09 0.351,0.14 0.5,0.26 0.141,0.111 0.221,0.29 0.401,0.321 0.18,0.12 0.51,0.269 0.72,0.309 0.4,0.061 0.56,0.07 0.74,0.14 3.49,2.53 7.11,4.86 11.01,6.77 4.78,2.33 9.53,5.401 14.43,7.35 0.699,0.28 1.01,-0.659 0.65,-1.11 -1.02,-1.27 -2.3,-2.28 -3.73,-3.15 -0.07,-0.08 -0.13,-0.17 -0.24,-0.24 -6.84,-4.71 -5.47,-11.46 -0.54,-17.6 2.95,-3.66 2.87,-3.77 -1,-1 -0.441,0.37 -0.85,0.76 -1.23,1.17 -2.52,2.151 -5.75,3.51 -8.74,4.81 -2.6,1.12 -5.44,1.171 -8.26,1.24 -0.39,0 -0.77,-0.12 -1.07,-0.359 -2.18,-1.71 -4.33,-3.46 -6.55,-5.131 -3.6,-2.699 -7.44,-5.17 -11.4,-7.48 -6.07,-3.54 -12.43,-6.679 -18.7,-9.63 -0.76,-0.36 -1.11,-1.219 -0.87,-2.03 1.59,-5.439 -0.9,-13.34 -0.44,-18.38 0.314,-3.381 1.255,-8.042 1.316,-12.367 67.61,42.472 113.937,71.8 145.557,101.348 0.15,1.87 0.089,3.746 -0.493,5.689 -0.23,0.78 -0.51,1.58 -0.84,2.38 -1.24,2.101 -2.71,4.59 -4.44,7.521 -4.57,7.739 -1.35,3.339 3.469,-1.531 0.031,-0.03 0.051,-0.05 0.071,-0.07 -0.27,0.41 0.65,-0.649 0,0 0.03,-0.06 0.08,-0.14 0.17,-0.25 2.79,-2.65 6.604,-4.13 10.116,-5.878 11.993,12.25 21.589,24.741 29.236,38.41 -0.923,1.61 -2.079,3.057 -3.642,4.218 -0.81,0.471 -1.62,0.96 -2.43,1.46 -2.81,1.511 -6.33,3.29 -9.85,4.19 -0.66,-0.1 -1.25,-0.179 -1.47,-0.139 -0.76,0.119 -1.38,0.349 -1.951,0.699 -1.539,0.08 -3.019,-0.09 -4.399,-0.62 -2.61,-4.31 -5.9,-8.26 -9.061,-12.17 -4.879,-6.029 -9.949,-11.92 -14.859,-17.94 -4.26,-5.23 -8.7,-11 -14.36,-14.77 -0.67,-0.449 -1.27,0.5 -0.81,1.04 9.71,11.391 19.97,22.391 28.58,34.71 3.94,5.65 6.19,12 9.1,18.2 2.76,5.88 6.61,11.15 9.46,16.97 6.37,13.011 6.849,28.94 9.21,43.03 2.74,16.41 5.45,32.42 5.8,49.12 0.02,1.06 1.629,1.06 1.64,0 0.16,-13.87 -0.59,-27.92 -1.82,-41.8 0.73,-0.91 0.39,-1.719 0.55,-3.17 0.31,-2.77 3.509,-3.26 5.38,-4.5 1.03,-0.68 1.23,-1.56 1.62,-2.66 1.24,-3.49 -0.13,-3.19 3.08,-3.81 2.16,-0.42 4.71,-1.06 6.88,-0.949 2.664,0.124 4.48,1.567 6.457,3.132 6.443,44.87 7.024,115.455 6.124,201.743 0.003,0.095 0.003,0.19 0.006,0.285 0.14,5.138 1.338,9.927 2.951,14.775 0.918,2.762 2.255,5.329 3.436,7.964 1.231,2.067 2.284,4.23 3.387,6.378 1.743,3.391 4.352,4.336 5.447,7.879 0.113,0.365 0.036,0.698 -0.137,0.971 -0.138,0.653 -0.61,1.232 -1.461,1.282" /></g></g></g></g></g></svg>