<?xml version="1.0" encoding="utf-8"?>
<!-- Generator: Adobe Illustrator 23.1.0, SVG Export Plug-In . SVG Version: 6.00 Build 0)  -->
<svg version="1.1" id="Livello_1" xmlns="http://www.w3.org/2000/svg" xmlns:xlink="http://www.w3.org/1999/xlink" x="0px" y="0px"
	 viewBox="0 0 1024 1024" style="enable-background:new 0 0 1024 1024;" xml:space="preserve">
<title>marker</title>
<path d="M872.1,360.1C872.1,161.5,710.5,0,512,0C313.4,0,151.9,161.5,151.9,359.7c-3.8,79.7,17.4,157.1,61.3,223.5
	c47.4,75.6,289.3,427.1,291.8,430.6l7,10.2l7-10.2c2.4-3.5,244.3-355.1,291.6-430.4C854.7,516.8,876,439.4,872.1,360.1z M512,233.4
	c69.9,0,126.7,56.9,126.7,126.7S581.9,486.8,512,486.8S385.3,430,385.3,360.1S442.2,233.4,512,233.4z"/>
</svg>
